<svg xmlns="http://www.w3.org/2000/svg" xmlns:xlink="http://www.w3.org/1999/xlink" zoomAndPan="magnify" preserveAspectRatio="xMidYMid meet" version="1.0" viewBox="6.86 55.21 361.5 234.54"><defs><clipPath id="3e67db9d82"><path d="M 70 55.210938 L 306 55.210938 L 306 289.746094 L 70 289.746094 Z M 70 55.210938 " clip-rule="nonzero"/></clipPath><clipPath id="412093a9f8"><path d="M 6.863281 88 L 368.363281 88 L 368.363281 257 L 6.863281 257 Z M 6.863281 88 " clip-rule="nonzero"/></clipPath><clipPath id="4598c4f536"><path d="M 146 248 L 306 248 L 306 289.746094 L 146 289.746094 Z M 146 248 " clip-rule="nonzero"/></clipPath></defs><g clip-path="url(#3e67db9d82)"><path fill="#f5f013" d="M 305.007812 250.351562 L 305.007812 289.746094 L 70.21875 289.746094 L 70.21875 257.910156 C 74.601562 257.890625 78.964844 257.847656 83.328125 257.761719 L 83.328125 276.648438 L 291.898438 276.648438 L 291.898438 248.75 C 296.261719 249.234375 300.621094 249.761719 305.007812 250.351562 Z M 76.773438 55.210938 L 305.007812 55.210938 L 305.007812 87.046875 C 300.621094 87.066406 296.261719 87.109375 291.898438 87.195312 L 291.898438 68.285156 L 83.328125 68.285156 L 83.328125 96.183594 C 78.964844 95.699219 74.601562 95.175781 70.21875 94.585938 L 70.21875 55.210938 L 76.773438 55.210938 " fill-opacity="1" fill-rule="nonzero"/></g><g clip-path="url(#412093a9f8)"><path fill="#51aee5" d="M 185.398438 244.308594 C 166.703125 247.089844 147.925781 249.152344 129.105469 250.5625 C 121.707031 237.53125 114.644531 224.347656 107.921875 210.957031 C 108.976562 210.304688 109.796875 209.316406 110.074219 208.09375 C 126.257812 207.671875 142.425781 206.703125 158.546875 205.167969 C 160.085938 206.21875 161.835938 206.957031 163.628906 207.398438 C 170.601562 219.886719 177.875 232.160156 185.398438 244.308594 Z M 119.304688 251.214844 C 111.949219 238.011719 104.929688 224.664062 98.269531 211.125 C 96.5 210.453125 94.8125 209.503906 93.359375 208.285156 C 76.730469 208.261719 60.078125 207.714844 43.449219 206.765625 C 50.046875 222.328125 57.128906 237.59375 64.675781 252.710938 C 82.90625 252.730469 101.113281 252.246094 119.304688 251.214844 Z M 19.527344 140.675781 C 35.316406 142.929688 51.164062 144.84375 67.054688 146.277344 C 67.394531 145.074219 68.214844 144.085938 69.3125 143.476562 C 63.894531 128.421875 59.089844 113.175781 55.085938 97.660156 C 38.941406 95.089844 22.859375 91.996094 6.863281 88.625 C 10.171875 106.207031 14.449219 123.535156 19.527344 140.675781 Z M 91.800781 197.609375 C 85.707031 184.53125 80.015625 171.332031 74.726562 157.898438 C 73.042969 157.078125 71.480469 155.980469 70.152344 154.632812 C 54.15625 153.390625 38.179688 151.664062 22.269531 149.582031 C 27.515625 166.109375 33.460938 182.34375 39.972656 198.429688 C 56.515625 199.546875 73.082031 200.261719 89.648438 200.449219 C 89.945312 199.25 90.746094 198.261719 91.800781 197.609375 Z M 106.300781 200.429688 C 104.84375 199.25 103.160156 198.304688 101.390625 197.628906 C 95.234375 184.722656 89.460938 171.6875 84.085938 158.445312 C 85.160156 157.835938 85.980469 156.84375 86.320312 155.644531 C 102.0625 156.402344 117.828125 156.59375 133.574219 156.152344 C 135.027344 157.328125 136.691406 158.214844 138.441406 158.78125 C 144.257812 171.035156 150.414062 183.101562 156.820312 195.039062 C 155.765625 195.734375 154.921875 196.746094 154.628906 197.988281 C 138.546875 199.378906 122.421875 200.175781 106.300781 200.429688 Z M 63.914062 99.007812 C 81.070312 101.40625 98.332031 103.15625 115.65625 104.019531 C 120.652344 118.144531 126.28125 132 132.390625 145.6875 C 131.316406 146.316406 130.453125 147.308594 130.09375 148.550781 C 114.414062 148.800781 98.753906 148.421875 83.09375 147.476562 C 81.789062 146.148438 80.226562 145.054688 78.542969 144.210938 C 73 129.347656 68.066406 114.3125 63.914062 99.007812 Z M 216.507812 196.683594 C 215.683594 196.828125 214.84375 196.996094 214.019531 197.144531 C 214.84375 196.996094 215.683594 196.828125 216.507812 196.683594 Z M 189.847656 100.628906 C 208.539062 97.871094 227.296875 95.804688 246.140625 94.394531 C 253.515625 107.429688 260.578125 120.609375 267.300781 133.980469 C 266.246094 134.632812 265.445312 135.644531 265.152344 136.863281 C 248.964844 137.285156 232.820312 138.234375 216.695312 139.769531 C 215.160156 138.738281 213.410156 138 211.617188 137.539062 C 204.621094 125.074219 197.371094 112.796875 189.847656 100.628906 Z M 255.941406 93.742188 C 263.296875 106.945312 270.316406 120.273438 276.953125 133.832031 C 278.746094 134.484375 280.410156 135.433594 281.863281 136.652344 C 298.515625 136.675781 315.164062 137.222656 331.773438 138.167969 C 325.175781 122.628906 318.09375 107.34375 310.550781 92.246094 C 292.339844 92.226562 274.128906 92.691406 255.941406 93.742188 Z M 355.695312 204.261719 C 339.910156 202.007812 324.058594 200.09375 308.167969 198.683594 C 307.832031 199.882812 307.03125 200.871094 305.933594 201.460938 C 311.351562 216.539062 316.136719 231.761719 320.140625 247.277344 C 336.285156 249.847656 352.363281 252.941406 368.363281 256.3125 C 365.054688 238.730469 360.773438 221.421875 355.695312 204.261719 Z M 283.425781 147.328125 C 289.515625 160.402344 295.226562 173.625 300.496094 187.039062 C 302.183594 187.859375 303.742188 188.976562 305.070312 190.300781 C 321.066406 191.542969 337.042969 193.269531 352.976562 195.375 C 347.707031 178.847656 341.785156 162.59375 335.25 146.527344 C 318.707031 145.414062 302.140625 144.695312 285.574219 144.484375 C 285.300781 145.707031 284.5 146.695312 283.425781 147.328125 Z M 268.945312 144.527344 C 270.398438 145.707031 272.085938 146.65625 273.835938 147.308594 C 279.988281 160.214844 285.785156 173.246094 291.136719 186.511719 C 290.0625 187.101562 289.242188 188.089844 288.90625 189.3125 C 273.160156 188.554688 257.417969 188.34375 241.671875 188.785156 C 240.21875 187.628906 238.554688 186.742188 236.78125 186.15625 C 230.964844 173.921875 224.832031 161.855469 218.402344 149.917969 C 219.457031 149.222656 220.320312 148.210938 220.617188 146.949219 C 236.699219 145.558594 252.800781 144.78125 268.945312 144.527344 Z M 226.980469 186.660156 C 221.125 174.574219 214.925781 162.675781 208.476562 150.90625 C 206.6875 150.464844 204.9375 149.75 203.398438 148.738281 C 191.890625 150.109375 180.425781 151.8125 169 153.835938 C 162.847656 154.445312 156.691406 154.949219 150.539062 155.371094 C 150.203125 156.613281 149.335938 157.625 148.242188 158.296875 C 154.121094 170.363281 160.296875 182.257812 166.765625 194.027344 C 168.539062 194.492188 170.289062 195.207031 171.847656 196.21875 C 183.375 194.828125 194.839844 193.125 206.285156 191.101562 C 212.417969 190.492188 218.550781 189.988281 224.707031 189.585938 C 225.042969 188.34375 225.90625 187.332031 226.980469 186.660156 Z M 311.328125 245.953125 C 294.152344 243.53125 276.890625 241.78125 259.585938 240.917969 C 254.59375 226.792969 248.964844 212.957031 242.832031 199.273438 C 243.925781 198.617188 244.792969 197.628906 245.128906 196.386719 C 260.808594 196.132812 276.492188 196.535156 292.128906 197.480469 C 293.457031 198.789062 295.015625 199.902344 296.679688 200.726562 C 302.222656 215.589844 307.15625 230.625 311.328125 245.953125 Z M 162.109375 147.625 C 162.574219 147.539062 163.058594 147.453125 163.523438 147.371094 C 163.058594 147.453125 162.574219 147.539062 162.109375 147.625 Z M 139.558594 139.789062 L 139.683594 140 C 140.507812 141.789062 141.308594 143.582031 142.128906 145.371094 C 142.53125 145.496094 142.929688 145.644531 143.308594 145.8125 L 143.332031 145.875 L 143.308594 145.8125 L 143.332031 145.832031 L 143.371094 145.832031 L 143.4375 145.875 L 143.5625 145.917969 L 143.582031 145.9375 L 143.605469 145.9375 L 143.648438 145.960938 L 143.667969 145.980469 L 143.792969 146.023438 L 143.816406 146.042969 C 144.953125 146.550781 146.007812 147.179688 146.976562 147.9375 C 148.914062 147.832031 150.832031 147.726562 152.75 147.601562 L 152.816406 147.601562 C 153.785156 147.539062 154.753906 147.453125 155.722656 147.390625 L 156.039062 147.371094 L 156.082031 147.371094 L 157.535156 147.265625 L 157.703125 147.246094 L 157.914062 147.222656 L 158.273438 147.203125 L 158.503906 147.179688 L 158.632812 147.179688 L 158.992188 147.140625 L 159.347656 147.117188 L 159.371094 147.117188 C 160.445312 147.035156 161.539062 146.949219 162.617188 146.84375 L 162.636719 146.84375 L 164.257812 146.71875 L 164.449219 146.695312 L 165.882812 146.570312 L 165.925781 146.570312 L 167.359375 146.421875 L 167.546875 146.402344 L 167.714844 146.402344 L 168.074219 146.359375 L 168.371094 146.339844 L 168.453125 146.316406 L 168.8125 146.296875 L 170.246094 146.148438 L 170.265625 146.148438 C 180.023438 145.179688 189.761719 143.917969 199.457031 142.378906 L 199.140625 141.75 L 199.457031 141.707031 C 199.75 140.441406 200.59375 139.410156 201.648438 138.695312 C 194.628906 126.378906 187.359375 114.230469 179.835938 102.226562 C 161.625 104.082031 143.371094 104.753906 125.078125 104.355469 C 126.113281 107.15625 127.164062 109.957031 128.261719 112.753906 L 128.28125 112.796875 L 128.429688 113.175781 L 128.535156 113.449219 L 128.597656 113.597656 L 128.765625 114.039062 L 128.789062 114.101562 L 128.9375 114.460938 L 129.273438 115.324219 L 129.292969 115.386719 L 129.441406 115.765625 L 129.546875 116.039062 L 129.609375 116.1875 L 129.777344 116.609375 L 129.800781 116.671875 L 129.945312 117.050781 L 130.050781 117.324219 L 130.117188 117.472656 L 130.179688 117.640625 L 130.328125 117.976562 L 130.472656 118.335938 L 130.578125 118.609375 L 130.644531 118.757812 L 130.8125 119.199219 L 130.832031 119.261719 L 130.980469 119.621094 L 131.105469 119.894531 L 131.148438 120.039062 L 131.339844 120.484375 L 131.359375 120.546875 L 131.507812 120.902344 L 131.613281 121.175781 L 131.675781 121.324219 L 131.84375 121.746094 L 131.886719 121.832031 L 132.035156 122.1875 L 132.140625 122.460938 L 132.203125 122.609375 L 132.246094 122.714844 L 132.5625 123.472656 L 132.667969 123.746094 L 133.214844 125.03125 L 133.257812 125.179688 C 135.027344 129.390625 136.839844 133.601562 138.695312 137.769531 L 138.757812 137.894531 L 139.261719 139.054688 L 139.304688 139.160156 L 139.515625 139.578125 L 139.683594 140 Z M 235.664062 205.105469 L 235.519531 204.894531 C 234.71875 203.125 233.917969 201.335938 233.117188 199.566406 C 232.714844 199.441406 232.316406 199.292969 231.933594 199.144531 L 231.914062 199.082031 L 231.933594 199.125 C 231.617188 199 231.28125 198.851562 230.964844 198.683594 L 230.945312 198.683594 L 230.902344 198.660156 L 230.882812 198.640625 L 230.839844 198.640625 L 230.796875 198.617188 L 230.796875 198.597656 L 230.710938 198.578125 L 230.503906 198.449219 L 230.480469 198.449219 L 230.417969 198.410156 L 230.332031 198.367188 L 230.269531 198.324219 L 230.25 198.324219 L 230.1875 198.28125 L 230.144531 198.261719 L 230.121094 198.238281 L 230.039062 198.199219 L 230.015625 198.199219 L 229.953125 198.15625 L 229.910156 198.113281 L 229.890625 198.113281 L 229.804688 198.070312 L 229.785156 198.050781 L 229.742188 198.03125 L 229.722656 198.007812 L 229.597656 197.925781 L 229.511719 197.882812 L 229.449219 197.839844 L 229.363281 197.796875 L 229.34375 197.777344 L 229.300781 197.753906 L 229.238281 197.691406 L 229.214844 197.691406 L 229.175781 197.671875 L 229.152344 197.652344 L 229.089844 197.609375 L 229.046875 197.585938 L 228.941406 197.503906 L 228.898438 197.480469 L 228.878906 197.460938 L 228.792969 197.417969 L 228.730469 197.355469 L 228.667969 197.3125 L 228.625 197.273438 L 228.585938 197.25 L 228.5625 197.230469 L 228.519531 197.207031 L 228.457031 197.167969 L 228.457031 197.144531 L 228.414062 197.125 L 228.351562 197.082031 L 228.308594 197.0625 L 228.308594 197.039062 L 228.246094 196.996094 L 227.53125 197.039062 C 210.183594 198.007812 192.921875 199.839844 175.789062 202.554688 L 176.105469 203.1875 L 175.789062 203.230469 C 175.492188 204.492188 174.648438 205.523438 173.597656 206.261719 C 180.613281 218.578125 187.886719 230.726562 195.410156 242.730469 L 195.621094 242.707031 C 213.746094 240.855469 231.933594 240.183594 250.144531 240.582031 C 249.113281 237.78125 248.058594 234.980469 246.984375 232.203125 C 245.464844 228.328125 243.925781 224.453125 242.324219 220.621094 L 242.304688 220.558594 L 242.03125 219.90625 L 241.96875 219.757812 L 241.609375 218.917969 L 241.484375 218.644531 L 240.957031 217.359375 L 240.894531 217.210938 L 240.722656 216.769531 L 240.683594 216.707031 L 240.535156 216.347656 L 240.40625 216.074219 L 240.34375 215.925781 L 240.175781 215.503906 L 240.132812 215.441406 L 239.921875 214.914062 L 239.859375 214.8125 L 239.796875 214.640625 L 239.628906 214.222656 L 239.605469 214.15625 L 239.4375 213.800781 L 239.332031 213.527344 L 239.269531 213.378906 L 239.078125 212.957031 L 239.039062 212.894531 L 238.804688 212.347656 L 238.765625 212.242188 L 238.699219 212.09375 L 238.660156 212.011719 L 238.34375 211.253906 L 238.214844 210.980469 L 237.964844 210.410156 L 237.941406 210.347656 L 237.667969 209.714844 L 237.605469 209.546875 C 236.972656 208.136719 236.339844 206.726562 235.707031 205.335938 L 235.6875 205.273438 L 235.539062 204.894531 L 235.664062 205.105469 " fill-opacity="1" fill-rule="evenodd"/></g><path fill="#4493d6" d="M 119.304688 251.214844 C 101.113281 252.246094 82.90625 252.730469 64.675781 252.710938 C 65.074219 237.445312 66.78125 222.476562 69.691406 207.925781 C 77.574219 208.15625 85.476562 208.285156 93.359375 208.285156 C 94.8125 209.503906 96.5 210.453125 98.269531 211.125 C 104.929688 224.664062 111.949219 238.011719 119.304688 251.214844 Z M 84.085938 158.445312 C 85.160156 157.835938 85.980469 156.84375 86.320312 155.644531 C 102.0625 156.402344 117.828125 156.59375 133.574219 156.152344 C 135.027344 157.328125 136.691406 158.214844 138.441406 158.78125 C 144.257812 171.035156 150.414062 183.101562 156.820312 195.039062 C 155.765625 195.734375 154.921875 196.746094 154.628906 197.988281 C 138.546875 199.378906 122.421875 200.175781 106.300781 200.429688 C 104.84375 199.25 103.160156 198.304688 101.390625 197.628906 C 95.234375 184.722656 89.460938 171.6875 84.085938 158.445312 Z M 148.242188 158.296875 C 154.121094 170.363281 160.296875 182.257812 166.765625 194.027344 C 168.539062 194.492188 170.289062 195.207031 171.847656 196.21875 C 175.261719 195.796875 178.695312 195.355469 182.109375 194.890625 C 191.089844 181.773438 201.207031 169.4375 212.335938 158.003906 C 211.046875 155.625 209.761719 153.265625 208.476562 150.90625 C 206.6875 150.464844 204.9375 149.75 203.398438 148.738281 C 191.890625 150.109375 180.425781 151.8125 169 153.835938 C 162.847656 154.445312 156.691406 154.949219 150.539062 155.371094 C 150.203125 156.613281 149.335938 157.625 148.242188 158.296875 Z M 189.847656 100.628906 C 208.539062 97.871094 227.296875 95.804688 246.140625 94.394531 C 250.734375 102.523438 255.222656 110.714844 259.566406 118.96875 C 250.480469 124.96875 241.757812 131.453125 233.472656 138.378906 C 227.867188 138.78125 222.28125 139.242188 216.695312 139.769531 C 215.160156 138.738281 213.410156 138 211.617188 137.539062 C 204.621094 125.074219 197.371094 112.796875 189.847656 100.628906 Z M 201.648438 138.695312 C 200.59375 139.410156 199.75 140.441406 199.457031 141.707031 L 199.140625 141.75 L 199.457031 142.378906 C 189.761719 143.917969 180.023438 145.179688 170.265625 146.148438 L 168.8125 146.296875 L 168.453125 146.316406 L 168.371094 146.339844 L 168.074219 146.359375 L 167.714844 146.402344 L 167.546875 146.402344 L 167.359375 146.421875 L 165.925781 146.570312 L 165.882812 146.570312 L 164.449219 146.695312 L 164.257812 146.71875 L 162.636719 146.84375 L 162.617188 146.84375 C 161.539062 146.949219 160.445312 147.035156 159.371094 147.117188 L 159.347656 147.117188 L 158.992188 147.140625 L 158.632812 147.179688 L 158.503906 147.179688 L 158.273438 147.203125 L 157.914062 147.222656 L 157.703125 147.246094 L 157.535156 147.265625 L 156.082031 147.371094 L 156.039062 147.371094 L 155.722656 147.390625 L 152.816406 147.601562 L 152.75 147.601562 C 150.832031 147.726562 148.914062 147.832031 146.976562 147.9375 C 146.007812 147.179688 144.953125 146.550781 143.816406 146.042969 L 143.792969 146.023438 L 143.667969 145.980469 L 143.648438 145.960938 L 143.605469 145.9375 L 143.582031 145.9375 L 143.5625 145.917969 L 143.4375 145.875 L 143.371094 145.832031 L 143.332031 145.832031 L 143.308594 145.8125 C 142.929688 145.644531 142.53125 145.496094 142.128906 145.371094 C 141.308594 143.582031 140.507812 141.789062 139.683594 140 L 139.515625 139.578125 L 139.304688 139.160156 L 139.261719 139.054688 L 138.757812 137.894531 L 138.695312 137.769531 C 136.839844 133.601562 135.027344 129.390625 133.257812 125.179688 L 133.214844 125.03125 L 132.667969 123.746094 L 132.5625 123.472656 L 132.246094 122.714844 L 132.203125 122.609375 L 132.140625 122.460938 L 132.035156 122.1875 L 131.886719 121.832031 L 131.84375 121.746094 L 131.675781 121.324219 L 131.613281 121.175781 L 131.507812 120.902344 L 131.359375 120.546875 L 131.339844 120.484375 L 131.148438 120.039062 L 131.105469 119.894531 L 130.980469 119.621094 L 130.832031 119.261719 L 130.8125 119.199219 L 130.644531 118.757812 L 130.578125 118.609375 L 130.472656 118.335938 L 130.328125 117.976562 L 130.179688 117.640625 L 130.117188 117.472656 L 130.050781 117.324219 L 129.945312 117.050781 L 129.800781 116.671875 L 129.777344 116.609375 L 129.609375 116.1875 L 129.546875 116.039062 L 129.441406 115.765625 L 129.292969 115.386719 L 129.273438 115.324219 L 128.9375 114.460938 L 128.789062 114.101562 L 128.765625 114.039062 L 128.597656 113.597656 L 128.535156 113.449219 L 128.429688 113.175781 L 128.28125 112.796875 L 128.261719 112.753906 C 127.164062 109.957031 126.113281 107.15625 125.078125 104.355469 C 143.371094 104.753906 161.625 104.082031 179.835938 102.226562 C 187.359375 114.230469 194.628906 126.378906 201.648438 138.695312 Z M 170.246094 146.148438 Z M 132.390625 145.6875 C 126.28125 132 120.652344 118.144531 115.65625 104.019531 C 115.488281 104.019531 115.300781 103.996094 115.152344 103.996094 C 105.226562 117.746094 96.582031 132.398438 89.398438 147.8125 C 102.949219 148.507812 116.523438 148.761719 130.09375 148.550781 C 130.453125 147.308594 131.316406 146.316406 132.390625 145.6875 Z M 255.941406 93.742188 C 259.714844 100.542969 263.402344 107.367188 267.007812 114.230469 C 280.769531 105.765625 295.3125 98.394531 310.550781 92.246094 C 292.339844 92.226562 274.128906 92.691406 255.941406 93.742188 Z M 89.648438 200.449219 C 89.945312 199.25 90.746094 198.261719 91.800781 197.609375 C 87.667969 188.746094 83.726562 179.816406 79.953125 170.785156 C 76.5625 180.320312 73.671875 190.070312 71.375 200.03125 C 77.46875 200.242188 83.558594 200.386719 89.648438 200.449219 Z M 153.785156 248.332031 C 158.085938 237.359375 163.101562 226.726562 168.789062 216.496094 C 167.042969 213.484375 165.335938 210.453125 163.628906 207.398438 C 161.835938 206.957031 160.085938 206.21875 158.546875 205.167969 C 142.425781 206.703125 126.257812 207.671875 110.074219 208.09375 C 109.796875 209.316406 108.976562 210.304688 107.921875 210.957031 C 114.644531 224.347656 121.707031 237.53125 129.105469 250.5625 C 137.34375 249.929688 145.566406 249.195312 153.785156 248.332031 " fill-opacity="1" fill-rule="evenodd"/><path fill="#f5f013" d="M 305.007812 87.046875 L 305.007812 55.210938 L 169.90625 55.210938 C 166.261719 57.253906 162.679688 59.421875 159.199219 61.738281 C 156.082031 63.824219 153.046875 65.992188 150.054688 68.285156 L 291.898438 68.285156 L 291.898438 87.195312 C 294.089844 87.152344 296.261719 87.132812 298.453125 87.089844 C 300.621094 87.066406 302.816406 87.066406 305.007812 87.046875 " fill-opacity="1" fill-rule="evenodd"/><g clip-path="url(#4598c4f536)"><path fill="#f5e212" d="M 291.898438 276.648438 L 147.96875 276.648438 C 147.671875 278.820312 147.441406 281.007812 147.230469 283.199219 C 147.019531 285.367188 146.851562 287.535156 146.722656 289.746094 L 305.007812 289.746094 L 305.007812 250.351562 C 302.816406 250.058594 300.621094 249.785156 298.453125 249.511719 C 296.261719 249.257812 294.089844 249.003906 291.898438 248.75 L 291.898438 276.648438 " fill-opacity="1" fill-rule="evenodd"/></g><path fill="#f5e212" d="M 83.328125 96.183594 L 83.328125 68.285156 L 150.054688 68.285156 C 153.046875 65.992188 156.082031 63.824219 159.199219 61.738281 C 162.679688 59.421875 166.261719 57.253906 169.90625 55.210938 L 70.21875 55.210938 L 70.21875 94.585938 C 72.410156 94.878906 74.601562 95.152344 76.773438 95.425781 C 78.964844 95.679688 81.132812 95.933594 83.328125 96.183594 " fill-opacity="1" fill-rule="evenodd"/></svg>